<svg xmlns="http://www.w3.org/2000/svg" width="16.025" height="13.331" viewBox="0 0 16.025 13.331">
    <g id="prefix__next_3_" data-name="next (3)" transform="translate(0 -41.346)">
        <g id="prefix__Group_161" data-name="Group 161" transform="translate(0 41.346)">
            <path id="prefix__Path_77" d="M15.769 47.389L9.981 41.6a.88.88 0 0 0-1.24 0l-.525.526a.871.871 0 0 0-.256.62.888.888 0 0 0 .256.627l3.376 3.384H.866a.856.856 0 0 0-.866.864v.743a.889.889 0 0 0 .866.9H11.63l-3.414 3.4a.869.869 0 0 0 0 1.232l.525.524a.88.88 0 0 0 1.24 0l5.787-5.787a.884.884 0 0 0 0-1.245z" data-name="Path 77" transform="translate(0 -41.346)" style="fill:#fff"/>
        </g>
    </g>
</svg>
