<svg xmlns="http://www.w3.org/2000/svg" width="23.456" height="23.456" data-name="002-settings" viewBox="0 0 23.456 23.456">
    <g data-name="Group 383">
        <g data-name="Group 382">
            <path d="M5.314 0a5.314 5.314 0 1 0 1.605 10.382.916.916 0 0 0-.553-1.747 3.477 3.477 0 1 1 2.29-2.34.916.916 0 0 0 1.759.514 5.318 5.318 0 0 0-5.1-6.808z" data-name="Path 227" transform="translate(6.414 6.414)"/>
        </g>
    </g>
    <g data-name="Group 385">
        <g data-name="Group 384">
            <path d="M20.707 8.521h-.461a.3.3 0 0 1-.279-.192l-.008-.02a.307.307 0 0 1 .06-.337l.326-.326a2.752 2.752 0 0 0 0-3.887l-.645-.648a2.749 2.749 0 0 0-3.887 0l-.326.326a.307.307 0 0 1-.337.06l-.02-.007a.306.306 0 0 1-.195-.28v-.461A2.752 2.752 0 0 0 12.186 0h-.916a2.752 2.752 0 0 0-2.749 2.749v.461a.306.306 0 0 1-.194.28l-.018.01a.307.307 0 0 1-.337-.06l-.326-.326a2.749 2.749 0 0 0-3.887 0l-.648.648a2.752 2.752 0 0 0 0 3.887l.326.326a.309.309 0 0 1 .059.34l-.006.013a.306.306 0 0 1-.28.195h-.461A2.752 2.752 0 0 0 0 11.27v.916a2.752 2.752 0 0 0 2.749 2.749h.461a.305.305 0 0 1 .279.192l.008.02a.307.307 0 0 1-.06.337l-.326.326a2.749 2.749 0 0 0 0 3.887l.648.648a2.749 2.749 0 0 0 3.887 0l.326-.326a.307.307 0 0 1 .337-.06l.017.007a.306.306 0 0 1 .195.28v.462a2.752 2.752 0 0 0 2.749 2.749h.916a2.752 2.752 0 0 0 2.749-2.749v-.462a.306.306 0 0 1 .194-.28l.018-.007a.307.307 0 0 1 .337.06l.326.326a2.749 2.749 0 0 0 3.887 0l.648-.648a2.749 2.749 0 0 0 0-3.887l-.326-.326a.307.307 0 0 1-.06-.337l.007-.017a.306.306 0 0 1 .28-.195h.461a2.752 2.752 0 0 0 2.749-2.749v-.916a2.752 2.752 0 0 0-2.749-2.749zm.916 3.665a.917.917 0 0 1-.916.916h-.461a2.133 2.133 0 0 0-1.974 1.328l-.006.014a2.134 2.134 0 0 0 .457 2.335l.326.326a.916.916 0 0 1 0 1.3l-.648.648a.916.916 0 0 1-1.3 0l-.326-.326a2.134 2.134 0 0 0-2.336-.456l-.013.005a2.133 2.133 0 0 0-1.326 1.97v.462a.917.917 0 0 1-.916.916h-.914a.917.917 0 0 1-.916-.916v-.462a2.133 2.133 0 0 0-1.329-1.974l-.012-.005a2.163 2.163 0 0 0-.831-.167 2.124 2.124 0 0 0-1.5.623l-.326.326a.916.916 0 0 1-1.3 0l-.649-.649a.916.916 0 0 1 0-1.3l.326-.326a2.134 2.134 0 0 0 .457-2.335l-.006-.014A2.133 2.133 0 0 0 3.21 13.1h-.461a.917.917 0 0 1-.916-.916v-.914a.917.917 0 0 1 .916-.916h.461a2.134 2.134 0 0 0 1.975-1.331v-.01a2.134 2.134 0 0 0-.457-2.336l-.326-.326a.917.917 0 0 1 0-1.3l.648-.648a.916.916 0 0 1 1.3 0l.326.326a2.134 2.134 0 0 0 2.336.456l.013-.005a2.133 2.133 0 0 0 1.329-1.97v-.461a.917.917 0 0 1 .916-.916h.916a.917.917 0 0 1 .916.916v.461a2.133 2.133 0 0 0 1.329 1.974l.012.005a2.134 2.134 0 0 0 2.336-.457l.326-.326a.916.916 0 0 1 1.3 0l.648.648a.917.917 0 0 1 0 1.3l-.326.326a2.132 2.132 0 0 0-.458 2.332l.007.017a2.133 2.133 0 0 0 1.974 1.328h.461a.917.917 0 0 1 .916.916z" data-name="Path 228"/>
        </g>
    </g>
</svg>
