<svg xmlns="http://www.w3.org/2000/svg" id="prefix___002-linkedin" width="18.486" height="18.486" data-name="002-linkedin" viewBox="0 0 18.486 18.486">
    <defs>
        <style>
            .prefix__cls-1{fill:#161715}
        </style>
    </defs>
    <path id="prefix__Path_71" d="M20.432 20.226v-6.78c0-3.317-.714-5.872-4.592-5.872a4.025 4.025 0 0 0-3.626 1.993h-.054V7.884H8.489v12.342h3.828v-6.112c0-1.609.305-3.165 2.3-3.165 1.963 0 1.993 1.836 1.993 3.268v6.009z" class="prefix__cls-1" data-name="Path 71" transform="translate(-1.95 -1.74)"/>
    <path id="prefix__Path_72" d="M.4 7.977h3.829v12.342H.4z" class="prefix__cls-1" data-name="Path 72" transform="translate(-.091 -1.833)"/>
    <path id="prefix__Path_73" d="M2.22 0a2.23 2.23 0 1 0 2.22 2.22A2.221 2.221 0 0 0 2.22 0z" class="prefix__cls-1" data-name="Path 73"/>
</svg>
