<svg xmlns="http://www.w3.org/2000/svg" width="23.456" height="20.478" viewBox="0 0 23.456 20.478">
    <path d="M22.54 18.646H8.246a.916.916 0 0 1 0-1.832H22.54a.916.916 0 1 1 0 1.832zm-18.875.916a.916.916 0 0 0-.916-.916.916.916 0 1 1 .916-.916.916.916 0 1 0 1.832 0 2.749 2.749 0 1 0-2.749 2.749.916.916 0 0 0 .917-.917zm19.791-9.483a.916.916 0 0 0-.916-.916H8.246a.916.916 0 0 0 0 1.832H22.54a.916.916 0 0 0 .916-.916zM3.665 11.911a.916.916 0 0 0-.916-.916.916.916 0 1 1 .916-.916.916.916 0 1 0 1.832 0 2.749 2.749 0 1 0-2.749 2.749.916.916 0 0 0 .917-.917zm19.791-9.162a.916.916 0 0 0-.916-.916H8.246a.916.916 0 0 0 0 1.832H22.54a.916.916 0 0 0 .916-.916zM3.665 4.581a.916.916 0 0 0-.916-.916.916.916 0 1 1 .916-.916.916.916 0 1 0 1.832 0A2.749 2.749 0 1 0 2.749 5.5a.916.916 0 0 0 .916-.919zm0 0" data-name="003-list"/>
</svg>
