<svg xmlns="http://www.w3.org/2000/svg" width="23.456" height="23.456" data-name="001-logout" viewBox="0 0 23.456 23.456">
    <g data-name="Group 377">
        <g data-name="Group 376">
            <path d="M19.791 0H3.665A3.669 3.669 0 0 0 0 3.665v.916a.916.916 0 1 0 1.832 0v-.916a1.835 1.835 0 0 1 1.833-1.833h16.126a1.835 1.835 0 0 1 1.832 1.832v16.127a1.835 1.835 0 0 1-1.832 1.832H3.665a1.835 1.835 0 0 1-1.832-1.832v-.916a.916.916 0 1 0-1.832 0v.916a3.669 3.669 0 0 0 3.665 3.665h16.125a3.669 3.669 0 0 0 3.665-3.665V3.665A3.669 3.669 0 0 0 19.791 0z" data-name="Path 224"/>
        </g>
    </g>
    <g data-name="Group 379">
        <g data-name="Group 378">
            <path d="M2.105 6.289l-.006-.006a.918.918 0 0 1 0-1.3l3.4-3.423a.916.916 0 0 0-1.3-1.292l-3.4 3.421a2.752 2.752 0 0 0 0 3.884l3.4 3.466a.916.916 0 1 0 1.308-1.283z" data-name="Path 225" transform="translate(.001 6.093)"/>
        </g>
    </g>
    <g data-name="Group 381">
        <g data-name="Group 380">
            <path d="M10.674 0H.916a.916.916 0 0 0 0 1.832h9.758a.916.916 0 0 0 0-1.832z" data-name="Path 226" transform="translate(4.581 10.812)"/>
        </g>
    </g>
</svg>
