<svg xmlns="http://www.w3.org/2000/svg" width="13.956" height="13.956" viewBox="0 0 13.956 13.956">
    <g id="prefix___002-call" data-name="002-call" style="opacity:.5">
        <g id="prefix__Group_159" data-name="Group 159">
            <path id="prefix__Path_76" d="M12.836 9.16a7.924 7.924 0 0 1-2.488-.4A1.137 1.137 0 0 0 9.241 9l-1.569 1.182a8.672 8.672 0 0 1-3.9-3.9l1.15-1.528A1.128 1.128 0 0 0 5.2 3.612a7.936 7.936 0 0 1-.4-2.492A1.121 1.121 0 0 0 3.683 0H1.12A1.121 1.121 0 0 0 0 1.12a12.85 12.85 0 0 0 12.836 12.836 1.121 1.121 0 0 0 1.12-1.12V10.28a1.121 1.121 0 0 0-1.12-1.12z" data-name="Path 76"/>
        </g>
    </g>
</svg>
