<svg xmlns="http://www.w3.org/2000/svg" width="18.505" height="18.507" viewBox="0 0 18.505 18.507">
    <path id="prefix___003-skype" d="M17.954 11.2A8.757 8.757 0 0 0 7.834.773 5.121 5.121 0 0 0 0 5.042a4.972 4.972 0 0 0 .7 2.55 8.759 8.759 0 0 0 10.253 10.3 5.086 5.086 0 0 0 7.001-6.692zm-5.883 3.628a7.988 7.988 0 0 1-5.913-.175c-2.305-1.229-2.715-4-.726-4 1.5 0 1.024 1.748 2.538 2.46a3.671 3.671 0 0 0 3.056-.231 1.2 1.2 0 0 0 .313-1.908C10.1 9.842 6.571 10.295 4.956 8.3a2.9 2.9 0 0 1 .029-3.5c1.5-1.935 5.916-2.053 7.813-.592 1.752 1.356 1.279 3.155-.135 3.155-1.7 0-.806-2.225-3.551-2.225-1.99 0-2.772 1.415-1.371 2.1 1.9.944 6.74.629 6.74 4.316a3.506 3.506 0 0 1-2.409 3.276z" data-name="003-skype" transform="translate(0 .002)" style="fill:#161715"/>
</svg>
