<svg xmlns="http://www.w3.org/2000/svg" xmlns:xlink="http://www.w3.org/1999/xlink" width="219.362" height="439.747" viewBox="0 0 219.362 439.747">
  <defs>
    <clipPath id="clip-path">
      <path id="Path_57" data-name="Path 57" d="M149.447-34.726h.364a.563.563,0,0,0,.181-.024.193.193,0,0,0,.1-.077.208.208,0,0,0,.035-.115.19.19,0,0,0-.066-.15.308.308,0,0,0-.208-.059h-.4Zm-.169.715v-1.28h.567a.761.761,0,0,1,.26.035.283.283,0,0,1,.142.122.365.365,0,0,1,.053.193.321.321,0,0,1-.088.229.447.447,0,0,1-.273.119.442.442,0,0,1,.1.064.922.922,0,0,1,.141.17l.222.348h-.213l-.169-.266q-.074-.115-.122-.177a.389.389,0,0,0-.086-.085.251.251,0,0,0-.077-.034.519.519,0,0,0-.1-.006h-.2v.568Z" transform="translate(-149.277 35.291)" fill="none" clip-rule="evenodd"/>
    </clipPath>
    <clipPath id="clip-path-2">
      <path id="Path_59" data-name="Path 59" d="M1.181-37.42l.127-.126v-.084a1.088,1.088,0,0,1,.105-.259.894.894,0,0,1,.2-.29.459.459,0,0,0,.132-.175.221.221,0,0,1,.191-.122.359.359,0,0,1-.064-.169l-.042-.2c0-.014.021-.043.063-.085l.063-.085c.036-.028.081-.063.138-.105a.238.238,0,0,0,.1-.174.705.705,0,0,1,.153-.306q.143-.2.217-.2a.2.2,0,0,0,.127-.042.162.162,0,0,1,.1-.042c.042,0,.079.031.111.1s.055.095.069.095c.056,0,.084-.035.084-.105,0-.035-.033-.061-.1-.079a.178.178,0,0,1-.132-.11,1.069,1.069,0,0,0-.064-.143.222.222,0,0,1-.031-.079.3.3,0,0,1,.1-.19A.274.274,0,0,1,3-40.5a.235.235,0,0,0,.169-.095c-.084-.043-.127-.092-.127-.148a1.4,1.4,0,0,0,.248-.375c.081-.165.171-.248.27-.248a.361.361,0,0,1,.106.043c.014-.029.053-.123.116-.285l-.074-.211a1.178,1.178,0,0,1,.286-.327l.084-.064a.779.779,0,0,1,.5-.5q.56-.591.677-.592c.014,0,.043.025.085.075l.105-.032c.043,0,.064.025.064.074a3.061,3.061,0,0,0-.338.338h.011a.728.728,0,0,0,.079-.063l.164-.148a.038.038,0,0,0,.042.042.49.49,0,0,0,.116-.307c0-.014-.038-.043-.116-.084l-.021-.064c0-.043.125-.172.376-.391a5.074,5.074,0,0,1,.819-.581l.1-.127a.139.139,0,0,1,.114-.053.524.524,0,0,1,.25.116l.041-.021a.409.409,0,0,1-.021-.158c0-.042.028-.07.083-.084a.849.849,0,0,1,.45-.275,1.554,1.554,0,0,0,.474-.222l.222-.084a1.383,1.383,0,0,0,.29-.063.894.894,0,0,1,.291-.042.639.639,0,0,0,.169-.069.517.517,0,0,1,.2-.069.527.527,0,0,1,.232.137c0,.014.014.021.042.021l.138-.1h.021a3.827,3.827,0,0,0,.317.264.961.961,0,0,1,.443.792l-.053.444.021.369a.4.4,0,0,1-.169.317,2.168,2.168,0,0,1-.19.681,1.871,1.871,0,0,0-.185.565,2.6,2.6,0,0,1-.618,1,.864.864,0,0,1-.132.185,2.959,2.959,0,0,0-.322.576,1.985,1.985,0,0,0-.375.5.539.539,0,0,1-.3.28H8.131l.042.232q-.4.655-.788.654a.7.7,0,0,1-.473-.216.61.61,0,0,1-.234-.438q0-.518,1.2-1.257a.359.359,0,0,1,.085.021l.084-.148A.334.334,0,0,1,8-40.81q0-.147.327-.348c.1-.2.2-.313.317-.327l.412-.644.043-.106v-.159c0-.028.074-.091.221-.19l.021-.043v-.222c0-.084.057-.154.169-.211A1.036,1.036,0,0,0,9.6-43.4a1.646,1.646,0,0,1,.175-.522,1.569,1.569,0,0,0-.122-.608.283.283,0,0,0-.248-.111,1.289,1.289,0,0,0-.5.185,1.387,1.387,0,0,1-.454.185.14.14,0,0,1-.084-.032.141.141,0,0,0-.085-.032c-.036,0-.07.037-.106.111a.221.221,0,0,1-.127.132.549.549,0,0,0-.185.116,1.219,1.219,0,0,1-.3.179l-.168.222-.18.127a.243.243,0,0,1-.275.222c-.035,0-.095.084-.179.253l-.085.084H6.516l-.021.1v.106a.123.123,0,0,1-.074.106l-.4.433-.074.042H5.862l-.042.021c-.021.253-.092.384-.211.391,0,.091-.1.215-.306.37l-.085.105H5.081L5.06-41.2c.05.042.074.07.074.084a.572.572,0,0,1-.121.238c-.081.116-.142.168-.185.153a1.171,1.171,0,0,1-.2.517l-.085.158a.858.858,0,0,1-.127.169v.084q0,.275-.516.5l.063.264a1.913,1.913,0,0,1-.168.253l-.095.2a.391.391,0,0,1-.148.232.462.462,0,0,1-.1.169.207.207,0,0,0-.068.116l.021.148a2.108,2.108,0,0,0-.191.406.683.683,0,0,1-.105.227.888.888,0,0,0-.116.238.7.7,0,0,1-.2.28q-.126.454-.126.5l-.147.127a.8.8,0,0,1-.064.159l-.021.084v.148q0,.137-.265.328a.165.165,0,0,1,.127.169.607.607,0,0,1-.1.369.886.886,0,0,0-.137.259,2.047,2.047,0,0,1-.158.343.213.213,0,0,1,.116.179l-.1.708.074.2a.5.5,0,0,1-.137.063.357.357,0,0,0,.127.217,2.12,2.12,0,0,1,.327.523.267.267,0,0,0,.18.042.624.624,0,0,0,.19-.021,1.842,1.842,0,0,1,.28-.047,1.036,1.036,0,0,0,.459-.2H3.6a.368.368,0,0,0,.354-.185q.1-.185.206-.185a.95.95,0,0,0,.306-.084h.064a.319.319,0,0,1,.085-.117,1.586,1.586,0,0,0,.174-.195q.132-.164.238-.164a4.252,4.252,0,0,0,.57-.433.229.229,0,0,1,.117-.032.19.19,0,0,0,.148-.106,2.778,2.778,0,0,1,.475-.443,1.786,1.786,0,0,0,.507-.555q.084-.206.2-.206a.88.88,0,0,1,.148.021h.021c.028,0,.049-.031.063-.1s.159-.175.433-.338c.007-.14.117-.264.327-.37l.37-.359.169.021a.24.24,0,0,0,.074-.19.219.219,0,0,1,.169-.2H8.9l.063-.042c.049-.232.13-.349.243-.349h.084c.057,0,.085-.067.085-.2s.151-.225.454-.3l.212-.106c.014-.021.045-.032.1-.032.182,0,.274.145.274.433a.21.21,0,0,1-.084.18l-.148.127-.021.179-.38.348a.27.27,0,0,0-.106.2c-.007.081-.028.122-.063.122a.25.25,0,0,1-.132.089.215.215,0,0,0-.133.111.66.66,0,0,1-.465.423,1,1,0,0,1-.338.491c-.106.053-.165.107-.18.164-.027.183-.123.267-.284.253a2.608,2.608,0,0,0-.5.591.019.019,0,0,1-.021.022l-.148-.022c-.014.014-.051.056-.111.127a.333.333,0,0,1-.243.116.244.244,0,0,0-.216.185.545.545,0,0,1-.116.217.578.578,0,0,0-.117.142q-.063.1-.127.1c-.063,0-.109-.06-.137-.179a.5.5,0,0,0-.169.158l.064.148a.093.093,0,0,1-.043.074,1,1,0,0,0-.153.206.733.733,0,0,1-.522.238c-.015,0-.042.048-.084.143a.324.324,0,0,1-.3.164q-.222.328-.37.327l-.454.148a.834.834,0,0,1-.2-.021c-.042.1-.091.148-.147.148l-.148.042a.214.214,0,0,1-.179.105q-.148,0-.148-.084a.164.164,0,0,1,.021-.064v-.042c0-.043-.014-.064-.042-.064,0,.3-.081.454-.243.454A.937.937,0,0,1,3-31.442H2.975l-.2.105a.121.121,0,0,1-.084.022,1.464,1.464,0,0,1-.781-.243H1.8a.539.539,0,0,1-.5-.38l-.021-.042A.353.353,0,0,1,1-32.308a1.69,1.69,0,0,0-.212-.222.708.708,0,0,0-.095-.27.563.563,0,0,1-.074-.142l-.243-.792A4.962,4.962,0,0,1,.335-34.3l-.021-.084v-.063l.043-.285-.021-.106a3.625,3.625,0,0,1,.2-.623,6.406,6.406,0,0,0,.248-.8A1.166,1.166,0,0,1,.874-36.6Z" transform="translate(-0.314 45.594)" fill="none" clip-rule="evenodd"/>
    </clipPath>
    <clipPath id="clip-path-3">
      <path id="Path_61" data-name="Path 61" d="M30.955-17.2a.491.491,0,0,1,.258-.354.521.521,0,0,0,.259-.248,5.677,5.677,0,0,0,.576-.528q.375-.38.375-.464c0-.021-.014-.032-.042-.032h-.021l-.084.053-.189-.021-.2.021-.148-.074-.137.021-.212-.042a.58.58,0,0,0-.29.069,2.133,2.133,0,0,1-.465.153,1.708,1.708,0,0,0-.619.29.834.834,0,0,1-.4.206,1.578,1.578,0,0,1-.5.454.489.489,0,0,0-.328.37,1.242,1.242,0,0,0-.275.253l-.074.18a.675.675,0,0,1-.211.122.242.242,0,0,0-.148.222.6.6,0,0,1-.142.316.411.411,0,0,0-.122.227q0,.517.2.518a1.264,1.264,0,0,0,.354-.111,1.363,1.363,0,0,0,.311-.153.473.473,0,0,1,.169-.084l.2-.106a.183.183,0,0,1,.094-.053.2.2,0,0,0,.106-.069.686.686,0,0,1,.19-.126.52.52,0,0,0,.211-.185q.179-.1.581-.328l.222-.169a.792.792,0,0,0,.285-.179.54.54,0,0,1,.212-.148m3.507,0,.168-.149a.17.17,0,0,0,.189-.142.344.344,0,0,1,.227-.227.871.871,0,0,0,.364-.343q.168-.259.347-.259c.043,0,.092.036.148.106a.309.309,0,0,1,.084.168,1.445,1.445,0,0,1-.211.719l-.042.3-.074.138a.466.466,0,0,0-.206.179.756.756,0,0,1-.248.232l-.106.148a.48.48,0,0,0-.311.243.3.3,0,0,1-.222.19.574.574,0,0,0-.311.211,1.441,1.441,0,0,1-.253.1l-.022.106a.755.755,0,0,1-.333.168,1.878,1.878,0,0,0-.338.121.409.409,0,0,1-.153.059.863.863,0,0,1-.37-.079,1.114,1.114,0,0,0-.348-.1.238.238,0,0,1-.074-.137.462.462,0,0,0-.105-.2.528.528,0,0,1-.1-.333l.042-.2a.182.182,0,0,0-.053-.106.183.183,0,0,1-.053-.105.085.085,0,0,1,.021-.063.087.087,0,0,0,.021-.064.369.369,0,0,0-.021-.117.335.335,0,0,1-.021-.105l.063-.517c0-.042-.014-.063-.042-.063s-.079.035-.153.105a.365.365,0,0,1-.259.106.479.479,0,0,0-.137.264.949.949,0,0,1-.212.19l-.042.063c-.014.049-.067.09-.158.122a.373.373,0,0,0-.19.122l-.105.106-.2-.021a1.5,1.5,0,0,0-.116.185.864.864,0,0,1-.243.27l-.8.655q-.127.084-.37.211l-.063.064a2.783,2.783,0,0,1-1.193.56,1.772,1.772,0,0,1-.665-.159q-.38-.158-.412-.38l-.105-.433a.76.76,0,0,1-.1-.412.43.43,0,0,1,.021-.169v-.063l-.021-.349c0-.084.067-.127.2-.127l-.021-.285a1.491,1.491,0,0,1,.185-.332,1.5,1.5,0,0,1,.248-.333l.1-.137a.348.348,0,0,1,.149-.269,1.482,1.482,0,0,0,.254-.29,1.292,1.292,0,0,1,.359-.327l.317-.317a3.2,3.2,0,0,1,.8-.592,1.055,1.055,0,0,0,.259-.211,1.233,1.233,0,0,1,.444-.28,2.982,2.982,0,0,0,.487-.227.836.836,0,0,1,.375-.137h.085a4.318,4.318,0,0,0,.56-.264h.064a.662.662,0,0,1,.2.084H31.7l.169-.084a.238.238,0,0,1,.105-.021q.655,0,.72.908c.014.127.049.19.106.19s.17-.128.3-.385a.838.838,0,0,1,.829-.385q.454,0,.454.581a1.827,1.827,0,0,1-.613,1.3.758.758,0,0,0-.063.19l-.148.433v.022a.326.326,0,0,1-.09.174.33.33,0,0,0-.09.195l.022.264-.043.3a.351.351,0,0,0,.074.264.863.863,0,0,0,.49-.28.72.72,0,0,1,.217-.216l.105-.042a1.006,1.006,0,0,1,.221-.264" transform="translate(-26.599 20.439)" fill="none" clip-rule="evenodd"/>
    </clipPath>
    <clipPath id="clip-path-4">
      <path id="Path_63" data-name="Path 63" d="M63.9-15.393h.043l.106.042a.059.059,0,0,0,.042-.021.373.373,0,0,1,.17-.306.482.482,0,0,1,.238-.306c.124-.071.319-.186.588-.349l.264-.232.127-.064.084-.106a.316.316,0,0,1,.222-.137c.105,0,.159.038.159.116l-.095.211.043.348a.492.492,0,0,1-.133.339c-.088.1-.224.242-.407.433l-.539.57-.286.148a.948.948,0,0,0-.19.148l-.413.349a.26.26,0,0,1-.1.222h-.169l-.085.043a.855.855,0,0,1-.434.391L63-13.45a.222.222,0,0,1-.137.063l-.3-.043-.2.043a.49.49,0,0,1-.227-.084,1.424,1.424,0,0,0-.291-.132q-.147-.047-.376-.391a1.826,1.826,0,0,1-.248-.448.4.4,0,0,0-.048-.143.506.506,0,0,1-.047-.121,1.285,1.285,0,0,1,.1-.211v-.021a.494.494,0,0,0-.058-.148.638.638,0,0,1-.058-.286.648.648,0,0,0-.063-.243c.056-.056.085-.1.085-.126a.354.354,0,0,0-.032-.122.378.378,0,0,1-.031-.122l.064-.518-.042-.264.021-.254c0-.148-.063-.222-.189-.222a.35.35,0,0,0-.211.116l-.074.021a2.454,2.454,0,0,0-.4.227.392.392,0,0,1-.243.09.574.574,0,0,1-.242.116l-.084.064a1.291,1.291,0,0,1-.168.127,2.4,2.4,0,0,1-.395.354c-.263.215-.5.417-.711.607a1.251,1.251,0,0,1-.458.311q-.142.026-.142.27c0,.028-.063.084-.19.169a1.372,1.372,0,0,0-.221.232.915.915,0,0,0-.19-.127c-.092,0-.159.117-.2.349-.043.092-.155.148-.339.169a.44.44,0,0,0-.075.158l-.042.043h-.106a.569.569,0,0,0-.148.121.649.649,0,0,1-.222.153q-.138.285-.233.285a.281.281,0,0,1-.122-.043.973.973,0,0,0-.2-.074c-.078-.021-.163-.107-.258-.259a.763.763,0,0,1-.143-.385q0-1.172.454-1.278l.021-.042v-.085a.2.2,0,0,1,.121-.2.706.706,0,0,0,.248-.232.809.809,0,0,1,.169-.2h.138c.028,0,.042-.074.042-.222a.161.161,0,0,1,.053-.116.249.249,0,0,0,.063-.153.93.93,0,0,1,.153-.327,1.009,1.009,0,0,0,.142-.269l-.021-.042a1.028,1.028,0,0,1-.38.264q-.117.021-.317.306l-.168-.031a3.989,3.989,0,0,1-.55.369.59.59,0,0,0-.232.243.086.086,0,0,1-.075.084,1.147,1.147,0,0,0-.275.169h-.064c-.175,0-.265-.127-.265-.38l.222-.6a.889.889,0,0,1,.449-.481,5.5,5.5,0,0,0,.6-.375.882.882,0,0,1,.485-.19l.073-.106a.8.8,0,0,0,.486-.432q.128-.3.349-.3a1.022,1.022,0,0,1,.886.428,1.32,1.32,0,0,1,.306.681l.021.285a1.918,1.918,0,0,1-.063.412.6.6,0,0,0-.126.285c0,.057.034.084.1.084a.3.3,0,0,0,.168-.09,1.5,1.5,0,0,1,.238-.163.35.35,0,0,0,.153-.127.6.6,0,0,1,.369-.349,1.069,1.069,0,0,0,.327-.158l.105-.085.084-.159a1.178,1.178,0,0,0,.38-.232.452.452,0,0,1,.253-.137.9.9,0,0,0,.359-.19l.159-.042.147-.085a.394.394,0,0,1,.127-.053c.07-.021.174-.058.311-.111a.994.994,0,0,1,.28-.079.991.991,0,0,1,.849.433,1.339,1.339,0,0,1,.312.7l-.022.19.043.285V-17l-.084.581.02.2a.9.9,0,0,1-.211.686c-.035.014-.053.049-.053.106v.094l.211.444c.063.155.113.232.148.232l.339-.1a.415.415,0,0,0,.244-.222,1.552,1.552,0,0,0,.3-.254c.042-.112.11-.169.2-.169" transform="translate(-54.361 18.763)" fill="none" clip-rule="evenodd"/>
    </clipPath>
    <clipPath id="clip-path-5">
      <path id="Path_65" data-name="Path 65" d="M96.808-37.474l-.106.306c.092-.014.173-.109.244-.286a4.122,4.122,0,0,1,.433-.559q.137,0,.206-.174a.962.962,0,0,1,.248-.343.678.678,0,0,1,.159-.285,2.788,2.788,0,0,0,.205-.3,1.158,1.158,0,0,1,.2-.238,1.425,1.425,0,0,0,.28-.507,1.117,1.117,0,0,1,.227-.433.361.361,0,0,0,.1-.3c0-.2-.014-.306-.042-.306-.064,0-.111.04-.143.121a1.25,1.25,0,0,1-.206.312l-.36.6a3.087,3.087,0,0,0-.279.57c-.046.141-.1.223-.159.248a.617.617,0,0,0-.216.206l-.148.148a1.437,1.437,0,0,0-.085.306l-.1.085v.2a.309.309,0,0,1-.158.248c-.106.074-.158.121-.158.142Zm-3.665,4.287.074-.137a.385.385,0,0,0,.232-.317,4,4,0,0,0,.434-.549,2.931,2.931,0,0,0,.348-.539.333.333,0,0,0-.243-.106.611.611,0,0,0-.127.042,1.171,1.171,0,0,1-.216.064.949.949,0,0,0-.239.084l-.264-.042a1.38,1.38,0,0,0-.518.306l-.243-.042c-.043,0-.112.091-.211.274l-.539.434h-.063c-.1,0-.166.088-.2.264a1.222,1.222,0,0,1-.339.322.482.482,0,0,0-.222.259v.137a.929.929,0,0,0-.3.5,1.014,1.014,0,0,0-.291.454,1.885,1.885,0,0,1-.163.413,2.1,2.1,0,0,1,.063.364c.014.145.085.217.211.217a1.027,1.027,0,0,0,.677-.37,1.529,1.529,0,0,1,.179-.116,2.609,2.609,0,0,0,.439-.375,2.784,2.784,0,0,1,.311-.291q.106-.105.127-.105l.085-.084c0-.028.03-.06.089-.1a1.135,1.135,0,0,0,.238-.217.787.787,0,0,1,.227-.2.2.2,0,0,0,.111-.09.359.359,0,0,1,.105-.111.146.146,0,0,0,.074-.116l.022-.127Zm-4.218,2.4-.085-.539a.57.57,0,0,1,.063-.2.144.144,0,0,0,.106-.042l-.063-.19a1.023,1.023,0,0,1,.206-.639,1.311,1.311,0,0,0,.227-.364,4.663,4.663,0,0,1,.3-.617,3.885,3.885,0,0,1,.417-.671l.064-.137.084-.022a2.506,2.506,0,0,1,.687-.707,1.326,1.326,0,0,1,.36-.381q.211-.147.286-.211a.433.433,0,0,1,.221-.084l.043-.021a.84.84,0,0,1,.529-.306,1.011,1.011,0,0,1,.3-.168h.116a.226.226,0,0,0,.127-.043.23.23,0,0,1,.127-.043.835.835,0,0,1,.222.085.463.463,0,0,1,.275-.169.751.751,0,0,1,.449.169.742.742,0,0,1,.291.412.827.827,0,0,0,.106.285.65.65,0,0,1,.085.105c.056,0,.13-.13.222-.39l.127-.169a2.112,2.112,0,0,0,.393-.866.6.6,0,0,0,.064-.175,3.629,3.629,0,0,1,.223-.523,2.972,2.972,0,0,0,.435-.908l.128-.19A.267.267,0,0,0,96.2-38.7a.429.429,0,0,1,.064-.185c.035-.056.076-.125.121-.206a.822.822,0,0,1,.111-.163,1.024,1.024,0,0,0,.126-.291c.057-.165.125-.259.206-.28a.828.828,0,0,0,.249-.116l.021-.074-.043-.148q0-.126.28-.443a3.712,3.712,0,0,0,.4-.523q.121-.206.412-.634a2.62,2.62,0,0,1,.417-.523l.243-.253a.545.545,0,0,1,.476-.243.723.723,0,0,1,.486.248.707.707,0,0,1,.253.491,1.6,1.6,0,0,1-.117.391l-.021.127a.928.928,0,0,1-.116.4,1.388,1.388,0,0,0-.138.359l-.592,1.447a.476.476,0,0,0-.126.064q-.275.6-.434.654v.211c0,.078-.049.134-.148.169l-.042.021a1.468,1.468,0,0,1-.243.581,1.253,1.253,0,0,0-.217.364.277.277,0,0,1-.217.206c-.1.014-.148.151-.148.412-.027.141-.1.212-.211.212s-.173.092-.2.274-.166.282-.412.3a.249.249,0,0,0-.127.148l.084.264a2.091,2.091,0,0,1-.39.5l-.085.274q-.2.074-.327,1.088l-.127.729.021.285-.042.148.127.433-.021.243c0,.112.043.169.127.169q.063,0,.285-.19l.148-.064a1.817,1.817,0,0,0,.822-.655.458.458,0,0,1,.153-.084.34.34,0,0,0,.163-.116.83.83,0,0,1,.084-.105,2.722,2.722,0,0,0,.832-.739.79.79,0,0,1,.39-.38l.084-.085a.37.37,0,0,1,.211-.106c.12,0,.179.036.179.106l-.084.3a2.01,2.01,0,0,1,.106.327.416.416,0,0,1-.328.454,1.037,1.037,0,0,0-.217.317.41.41,0,0,1-.344.221,1.076,1.076,0,0,1-.327.333q-.148.079-.148.163v.095a.625.625,0,0,1-.148.169l-.2-.043a1.692,1.692,0,0,1-.19.349.163.163,0,0,0-.1-.042.281.281,0,0,0-.243.179c-.063.12-.109.18-.137.18h-.243a1.32,1.32,0,0,0-.169.137.575.575,0,0,1-.39.106l-.328.063a1.371,1.371,0,0,1-.856-.3.923.923,0,0,1-.418-.549,2.176,2.176,0,0,0-.174-.6l-.02-.433q-.117-.676-.264-.676l-.021.137-.085.043q-.063.327-.211.327a.545.545,0,0,0-.137.106l-.064.042a.468.468,0,0,0-.122.18,1.688,1.688,0,0,1-.439.443q-.148.391-.222.391l-.127-.085h-.021c-.056,0-.1.083-.137.248s-.106.248-.212.248c-.028,0-.055.048-.079.142a.238.238,0,0,1-.185.18c-.1.025-.186.122-.265.29s-.13.254-.158.254a.166.166,0,0,1-.064-.021l-.18.042q-.053.074-.149.243a.647.647,0,0,0-.169.085,1.193,1.193,0,0,1-.867.316.993.993,0,0,1-.6-.163.736.736,0,0,1-.264-.28,1.442,1.442,0,0,0-.159-.29.973.973,0,0,1-.148-.428Z" transform="translate(-88.84 42.777)" fill="none" clip-rule="evenodd"/>
    </clipPath>
    <clipPath id="clip-path-6">
      <path id="Path_67" data-name="Path 67" d="M122.272-35.445l.222-.127a1,1,0,0,1,.275-.407c.154-.158.264-.237.327-.237h.084a.369.369,0,0,1,.032-.148.514.514,0,0,0,.032-.2q0-.063.285-.348l.085-.19a.836.836,0,0,1,.475-.454q.147-.306.222-.306l.084-.021a.632.632,0,0,1,.169-.285l.042-.063V-38.4a.764.764,0,0,1,.142-.174,1.194,1.194,0,0,0,.207-.286.5.5,0,0,1,.174-.206.4.4,0,0,0,.153-.264l.169-.02a.469.469,0,0,1,.021-.18l.021-.106q.053-.127.369-.666l.169-.391a.244.244,0,0,1,.09-.153.351.351,0,0,0,.089-.259l.084-.348c0-.162-.028-.243-.084-.243a.817.817,0,0,1-.195.105c-.06.022-.118.148-.175.381-.211.049-.333.149-.364.3a.639.639,0,0,1-.259.385l-.074.127a.436.436,0,0,1-.2.243,1.187,1.187,0,0,0-.338.433q-.528.729-.581.782l-.1.127-.159-.021a1.831,1.831,0,0,1,.042.191.165.165,0,0,1-.064.122.372.372,0,0,0-.1.142.674.674,0,0,1-.126.2,1.078,1.078,0,0,0-.174.36.623.623,0,0,1-.143.29l-.148-.021c-.092.057-.137.112-.137.169l.031.148a.159.159,0,0,1-.058.1.592.592,0,0,0-.111.227,2.591,2.591,0,0,1-.263.512,3.234,3.234,0,0,0-.333.728,1.216,1.216,0,0,1-.238.492.085.085,0,0,0,.063.02c.092,0,.18-.094.265-.285Zm-2.143,2.8v-.074a1.013,1.013,0,0,1,.021-.232.886.886,0,0,1-.064-.306,2.887,2.887,0,0,1,.106-.3l.1-.327a1.692,1.692,0,0,1,.085-.2,1.254,1.254,0,0,1-.063-.19.589.589,0,0,1,.137-.4,1.327,1.327,0,0,0,.232-.444l.211-.644.349-.845a1.072,1.072,0,0,1,.1-.169q.089-.138.147-.238c.039-.066.094-.164.164-.291l.106-.021a.125.125,0,0,0,.042-.085,1.345,1.345,0,0,0-.042-.169l.37-.613.221-.454a.52.52,0,0,1,.233-.232,1.188,1.188,0,0,1,.369-.475,1.57,1.57,0,0,1,.232-.434l.2-.021a.957.957,0,0,1,.1-.221l.022-.211c0,.042.017.03.053-.037s.088-.191.158-.375l.286-.327.085-.148c.035-.049.091-.145.169-.285a.552.552,0,0,0,.264-.232l.222-.18q-.021-.116.253-.518a1.374,1.374,0,0,0,.327-.19l.148-.043a.518.518,0,0,1,.265-.507l.126-.084a.99.99,0,0,1,.191-.084l.074-.021a.936.936,0,0,1,.3-.042,1.024,1.024,0,0,1,.708.291.876.876,0,0,1,.316.66.449.449,0,0,1-.158.306l-.043.084q-.148.581-.211.581a.215.215,0,0,0-.117.063,2,2,0,0,1-.042.391c-.127.021-.191.18-.191.475a.846.846,0,0,1-.153.217,1.065,1.065,0,0,0-.206.422c-.049.179-.1.269-.158.269h-.116l.031.158a.412.412,0,0,1-.142.29.593.593,0,0,0-.174.3.843.843,0,0,1-.254.38l-.105.169a1.4,1.4,0,0,1-.169.222.948.948,0,0,0-.18.36l-.274.507c-.191.345-.334.511-.434.5a3.589,3.589,0,0,1-.127.475.289.289,0,0,1-.147.116.37.37,0,0,0-.18.185.589.589,0,0,1-.137.2l-.191.391a.451.451,0,0,0-.242.274q-.169.042-.211.286a.667.667,0,0,0-.105.19l-.37.369a.633.633,0,0,0-.306.459.248.248,0,0,1-.274.259,1.433,1.433,0,0,1-.528-.158h-.021a1,1,0,0,1-.148.327l.042.285c0,.036-.056.257-.169.665a.6.6,0,0,1,.084.222l-.021.233.054.285q.052.348.253.348l.253.043a1.7,1.7,0,0,0,.264-.159l.391-.211a.019.019,0,0,1,.021.021.483.483,0,0,0,.169.042c.07,0,.106-.056.106-.169v-.137a.249.249,0,0,1,.152-.127.338.338,0,0,0,.164-.095c.05-.05.088-.074.116-.074h.106c.105,0,.158-.123.158-.37a.454.454,0,0,0,.106-.084h.127c.056,0,.117-.068.184-.206a1.162,1.162,0,0,1,.142-.248.74.74,0,0,0,.265-.064c.225-.408.4-.612.516-.612h.063a.549.549,0,0,0,.2-.3.2.2,0,0,1,.105-.174.742.742,0,0,0,.164-.105c.049-.043.081-.064.1-.064.105,0,.158.039.158.116l-.031.3.073.317a.4.4,0,0,1-.089.164.441.441,0,0,0-.09.269c0,.2-.035.314-.105.328a.262.262,0,0,0-.174.142.651.651,0,0,1-.227.222.638.638,0,0,0-.242.29l-.18.042-.105.064a.743.743,0,0,1-.27.4,1.18,1.18,0,0,0-.354.443c-.02,0-.031.008-.031.022l-.169-.022a.4.4,0,0,1-.189.2.311.311,0,0,0-.158.122.483.483,0,0,1-.227.152.371.371,0,0,0-.206.148.16.16,0,0,1-.127.1.286.286,0,0,0-.159.079.2.2,0,0,1-.126.068,1.456,1.456,0,0,1-.147-.02h-.042a.566.566,0,0,1-.3.126.371.371,0,0,0-.2.042.517.517,0,0,0-.2-.063,1.071,1.071,0,0,1-.3-.105,1.494,1.494,0,0,1-.222.042q-.179,0-.453-.354a1.137,1.137,0,0,1-.274-.692,1.4,1.4,0,0,0-.122-.163.524.524,0,0,1-.121-.333v-.106l.021-.127v-.2l.022-.063q.158-.021.158-.043Z" transform="translate(-120.066 43.313)" fill="none" clip-rule="evenodd"/>
    </clipPath>
    <clipPath id="clip-path-7">
      <path id="Path_69" data-name="Path 69" d="M136.464-19.68l-.127.063a2.59,2.59,0,0,0-.248.185,2.386,2.386,0,0,1-.4.264,1.146,1.146,0,0,0-.4.523,2.4,2.4,0,0,0-.206.485.056.056,0,0,0,.063.063l.36-.158a1.726,1.726,0,0,0,.375-.243,4.943,4.943,0,0,1,.5-.359l.085-.084a.7.7,0,0,1,.2-.153,1.074,1.074,0,0,0,.259-.216l.105-.043a.777.777,0,0,1,.364-.348c.123-.043.185-.084.185-.127,0-.084-.067-.127-.2-.127a.566.566,0,0,0-.254.105h-.243a.765.765,0,0,0-.232.127Zm-2.234.634.222-.179a.266.266,0,0,0,.274-.264.568.568,0,0,1,.348-.422l.127-.179a2.813,2.813,0,0,1,.866-.412.839.839,0,0,0,.242-.19.062.062,0,0,1,.043-.021l.168.043a1.145,1.145,0,0,0,.353-.074,1.287,1.287,0,0,1,.418-.074l.443-.021a.56.56,0,0,1,.174.064.744.744,0,0,0,.322.063.578.578,0,0,1,.428.211.606.606,0,0,1,.2.391.969.969,0,0,1-.337.665,1.3,1.3,0,0,1-.538.38,1.286,1.286,0,0,1-.275.227.77.77,0,0,0-.195.148.277.277,0,0,1-.164.1.075.075,0,0,1-.063-.026.076.076,0,0,0-.064-.026q-.168,0-.368.412l-.19-.021a.552.552,0,0,0-.232.253.213.213,0,0,1-.222.138c-.261.261-.436.39-.527.39a.864.864,0,0,1-.148-.042.352.352,0,0,0-.084.222c0,.085-.056.134-.169.148l-.137.127-.105-.021-.211.222a.616.616,0,0,0-.326.105q-.022.127-.064.322c-.028.131-.042.2-.042.216,0,.2.186.306.56.306l.507-.073a.711.711,0,0,0,.375-.106.711.711,0,0,1,.375-.106.668.668,0,0,0,.191-.042l.1.042a.708.708,0,0,1,.275-.285.659.659,0,0,1,.317-.127l.105-.064a.271.271,0,0,1,.127-.169l.084-.074a.238.238,0,0,1,.158-.085h.148l.043-.021a.512.512,0,0,1,.353-.322.4.4,0,0,0,.285-.153.26.26,0,0,1,.206-.127.384.384,0,0,0,.248-.142,1.292,1.292,0,0,1,.248-.228,2.533,2.533,0,0,0,.206-.158.167.167,0,0,1,.1-.053c.043,0,.063.032.063.1s.014.1.043.1a.038.038,0,0,0,.043-.043.346.346,0,0,0-.022-.105v-.074a.21.21,0,0,1,.169-.211l.475-.307c.014-.148.054-.233.122-.259a.48.48,0,0,0,.153-.084.169.169,0,0,1,.116-.047c.092,0,.138.052.138.158l-.053.275.053.285a.316.316,0,0,1-.1.174.739.739,0,0,0-.153.338c-.036.151-.081.234-.138.248h-.063a.909.909,0,0,1-.3.238.329.329,0,0,0-.174.132l-.359.412c-.071.071-.131.134-.18.19s-.088.085-.116.085l-.084-.085c0-.014-.014-.021-.043-.021-.07,0-.115.042-.132.127a.48.48,0,0,1-.111.222,1.128,1.128,0,0,0-.413.275l-.063.021h-.191q-.137,0-.19.206a.318.318,0,0,1-.3.238.659.659,0,0,0-.354.127.239.239,0,0,1-.1.043,1.445,1.445,0,0,0-.3.169l-.888.317a.437.437,0,0,1-.137.053l-.3.042a.169.169,0,0,1-.127-.084c-.042-.056-.07-.085-.084-.085l-.19.064a1.415,1.415,0,0,1-.4.063.466.466,0,0,1-.233-.074,1.979,1.979,0,0,0-.2-.106q-.307,0-.433-.475l-.126.021a3.087,3.087,0,0,1-.286-.75.362.362,0,0,0-.2-.122.185.185,0,0,1-.138-.205.787.787,0,0,1,.206-.639c.137-.109.213-.192.227-.248l.148-.549a.557.557,0,0,0,.105-.212l.243-.443c.028-.049.091-.172.19-.37Z" transform="translate(-133.111 20.841)" fill="none" clip-rule="evenodd"/>
    </clipPath>
  </defs>
  <g id="Group_564" data-name="Group 564" transform="translate(-148 -398)">
    <path id="Subtraction_1" data-name="Subtraction 1" d="M109.68,53.284c-14.667,0-28.905-.672-42.32-2A273.558,273.558,0,0,1,32.69,45.829c-10.042-2.338-17.98-5.064-23.592-8.1a25.508,25.508,0,0,1-6.57-4.791A8.493,8.493,0,0,1,.014,27.786H0V0A8.1,8.1,0,0,0,2.228,5.08,23.787,23.787,0,0,0,8.619,9.942a65.021,65.021,0,0,0,10.113,4.4,135.1,135.1,0,0,0,13.393,3.834,270.715,270.715,0,0,0,34.863,5.551c13.522,1.351,27.886,2.036,42.693,2.036s29.171-.685,42.693-2.036a270.732,270.732,0,0,0,34.863-5.551,135.137,135.137,0,0,0,13.393-3.834,65.035,65.035,0,0,0,10.112-4.4,23.78,23.78,0,0,0,6.391-4.862A8.084,8.084,0,0,0,219.36,0V27.786h-.013a8.494,8.494,0,0,1-2.515,5.149,25.5,25.5,0,0,1-6.57,4.791c-5.612,3.039-13.55,5.765-23.592,8.1A273.572,273.572,0,0,1,152,51.285C138.586,52.611,124.348,53.284,109.68,53.284Z" transform="translate(148 784.463)" fill="#eaeaea"/>
    <path id="Subtraction_14" data-name="Subtraction 14" d="M348.681,3974.466c-14.807,0-29.172-.685-42.693-2.036a270.725,270.725,0,0,1-34.863-5.551c-10.073-2.379-17.981-5.149-23.505-8.234a23.785,23.785,0,0,1-6.391-4.862,7.22,7.22,0,0,1-.037-10.4,23.449,23.449,0,0,1,6.287-4.826l-.261,4.869a4.916,4.916,0,0,0-.123,1.087,5.035,5.035,0,0,0,.034.573l-.034.64h.154c.717,2.818,3.9,5.536,9.461,8.079,5.393,2.466,12.8,4.672,22.025,6.556,18.954,3.873,43.8,6.006,69.947,6.006s50.993-2.133,69.947-6.006c9.221-1.884,16.631-4.09,22.024-6.556,5.56-2.542,8.743-5.261,9.461-8.079h.154l-.034-.64a4.808,4.808,0,0,0,.034-.573,4.916,4.916,0,0,0-.123-1.087l-.261-4.87a23.452,23.452,0,0,1,6.287,4.826,7.22,7.22,0,0,1-.036,10.4,23.787,23.787,0,0,1-6.391,4.862c-5.524,3.084-13.432,5.855-23.506,8.234a270.729,270.729,0,0,1-34.863,5.551C377.852,3973.781,363.488,3974.466,348.681,3974.466Z" transform="translate(-91 -3163.431)" fill="#d9d9d9"/>
    <path id="Union_2" data-name="Union 2" d="M.154,353.73H0l.034-.641a4.832,4.832,0,0,1,.089-1.66L16.19,51.805H16.3C18.607,22.946,55.908,0,101.586,0s82.98,22.946,85.285,51.805h.113l16.065,299.624a4.844,4.844,0,0,1,.089,1.66l.034.641h-.154c-2.928,11.506-47.221,20.641-101.432,20.641S3.083,365.236.154,353.73Z" transform="translate(156.095 428.569)" fill="#fff"/>
    <path id="Union_1" data-name="Union 1" d="M.054,28.636H0V0H80V28.636h-.054C78.852,32.738,61.387,36,40,36S1.148,32.738.054,28.636Z" transform="translate(218 406)" fill="#e2e2e2"/>
    <ellipse id="Ellipse_4" data-name="Ellipse 4" cx="40" cy="7.5" rx="40" ry="7.5" transform="translate(218 398)" fill="#e46e39"/>
    <ellipse id="Ellipse_18" data-name="Ellipse 18" cx="21" cy="3" rx="21" ry="3" transform="translate(237 403)" fill="#fff"/>
    <g id="Group_152" data-name="Group 152" transform="translate(232.686 492.651)">
      <g id="Group_142" data-name="Group 142" transform="translate(46.45 -69.998)">
        <path id="Path_55" data-name="Path 55" d="M2.512,1.257A1.256,1.256,0,1,1,1.256,0,1.256,1.256,0,0,1,2.512,1.257Z" fill="none" stroke="#e46e39" stroke-width="1"/>
      </g>
      <g id="Group_143" data-name="Group 143" transform="translate(47.221 -69.368)" clip-path="url(#clip-path)">
        <path id="Path_56" data-name="Path 56" d="M144.277-40.291h4.277v4.429h-4.277Z" transform="translate(-145.852 38.717)" fill="#e46e39"/>
      </g>
      <g id="Group_144" data-name="Group 144" transform="translate(0.314 -72.612)" clip-path="url(#clip-path-2)">
        <path id="Path_58" data-name="Path 58" d="M-4.686-50.594H8.646v17.428H-4.686Z" transform="translate(3.112 49.019)" fill="#e46e39"/>
      </g>
      <g id="Group_145" data-name="Group 145" transform="translate(8.591 -64.691)" clip-path="url(#clip-path-3)">
        <path id="Path_60" data-name="Path 60" d="M21.6-25.439H34.137v9.264H21.6Z" transform="translate(-23.174 23.864)" fill="#e46e39"/>
      </g>
      <g id="Group_146" data-name="Group 146" transform="translate(17.333 -64.163)" clip-path="url(#clip-path-4)">
        <path id="Path_62" data-name="Path 62" d="M49.361-23.763H64.1v8.525H49.361Z" transform="translate(-50.935 22.188)" fill="#e46e39"/>
      </g>
      <g id="Group_147" data-name="Group 147" transform="translate(28.19 -71.725)" clip-path="url(#clip-path-5)">
        <path id="Path_64" data-name="Path 64" d="M83.84-47.777H98.168v16.3H83.84Z" transform="translate(-85.415 46.202)" fill="#e46e39"/>
      </g>
      <g id="Group_148" data-name="Group 148" transform="translate(38.023 -71.894)" clip-path="url(#clip-path-6)">
        <path id="Path_66" data-name="Path 66" d="M115.066-48.313H125.6V-32.1H115.066Z" transform="translate(-116.64 46.739)" fill="#e46e39"/>
      </g>
      <g id="Group_149" data-name="Group 149" transform="translate(42.13 -64.818)" clip-path="url(#clip-path-7)">
        <path id="Path_68" data-name="Path 68" d="M128.111-25.841H138.86v9.158H128.111Z" transform="translate(-129.686 24.267)" fill="#e46e39"/>
      </g>
    </g>
  </g>
</svg>
