<svg xmlns="http://www.w3.org/2000/svg" width="41.354" height="41.353" viewBox="0 0 41.354 41.353">
    <g data-name="003-christmas">
        <g data-name="Group 505">
            <g data-name="Group 504">
                <path d="M28.817 24.942c-3.322-.89-4.081-5.745-4.088-5.794a.575.575 0 0 0-.691-.477 5.686 5.686 0 0 1-1.865.015 4.846 4.846 0 0 1-3-1.621 6 6 0 0 1 2.534-1.9.574.574 0 0 0 .351-.755c-.018-.046-1.788-4.63.643-7.062a.574.574 0 0 0-.672-.913c-.017.009-.033.018-.049.029a.573.573 0 0 0-.09.073c-2.432 2.432-7.016.662-7.062.644a.573.573 0 0 0-.755.351 5.921 5.921 0 0 1-1.9 2.535 4.845 4.845 0 0 1-1.621-3 5.688 5.688 0 0 1 .015-1.863.574.574 0 0 0-.476-.693c-.047-.006-4.902-.765-5.79-4.086a.574.574 0 0 0-1.108.3C4.08 4.044.256 7.128.217 7.159a.575.575 0 0 0-.075.828 5.91 5.91 0 0 1 .935 1.648 4.989 4.989 0 0 1-.061 3.837.573.573 0 0 0 .184.685 4.888 4.888 0 0 1 1.947 3.263 5.974 5.974 0 0 1 .023 1.684c-.035.031-.069.063-.1.1a2.75 2.75 0 0 0 2.3 4.674 2.794 2.794 0 0 0-.023.354 2.753 2.753 0 0 0 4.7 1.946c.033-.033.064-.067.1-.1a5.964 5.964 0 0 1 1.686.023 4.888 4.888 0 0 1 3.263 1.947.573.573 0 0 0 .685.184 4.992 4.992 0 0 1 3.837-.061 5.912 5.912 0 0 1 1.646.933.573.573 0 0 0 .38.144h.051a.573.573 0 0 0 .4-.215c.031-.039 3.1-3.866 6.437-2.973a.589.589 0 0 0 .068.013h.154l.036-.007h.014l.049-.014h.009l.038-.015.016-.008.03-.015.017-.01.028-.018.016-.011.028-.022.012-.01.037-.035.03-.034.01-.014.02-.028.01-.017.017-.029.009-.018.015-.033.006-.039.017-.052a.574.574 0 0 0-.401-.702zm-16.363-13.67h.006a6.984 6.984 0 0 0 2.473-2.833 9.782 9.782 0 0 0 5.678.2 9.783 9.783 0 0 0 .2 5.678 6.982 6.982 0 0 0-2.827 2.464l-.022.035a6.032 6.032 0 0 0-.822 2.105 6.193 6.193 0 0 0-3.709 2.26v.006a7.391 7.391 0 0 0-.885 1.4 12.046 12.046 0 0 0-1.625-.389 2.752 2.752 0 0 0 .13-3.178l4.332-4.332a.573.573 0 0 0-.811-.811l-4.332 4.332a2.752 2.752 0 0 0-3.18.131 12.25 12.25 0 0 0-.388-1.626 7.408 7.408 0 0 0 1.4-.886h.005a6.2 6.2 0 0 0 2.26-3.709 6.04 6.04 0 0 0 2.117-.847zM2.23 13.513a6.194 6.194 0 0 0-.1-4.326 7.4 7.4 0 0 0-.778-1.491 9.783 9.783 0 0 0 3.009-4.824A9.775 9.775 0 0 0 9.367 5.54a7.153 7.153 0 0 0 .046 1.656 6.057 6.057 0 0 0 1.724 3.476 5.059 5.059 0 0 1-1.378.362.573.573 0 0 0-.5.5 4.909 4.909 0 0 1-1.244 2.762L6.548 8.817a.574.574 0 1 0-1.108.3l1.616 6.03a5.725 5.725 0 0 1-1.3.7.573.573 0 0 0-.35.757 10.4 10.4 0 0 1 .51 1.945 2.782 2.782 0 0 0-1.556-.077 7.177 7.177 0 0 0-.077-1.184 6.08 6.08 0 0 0-2.053-3.775zm3.92 8.768a1.605 1.605 0 0 1-2.27-2.27 1.591 1.591 0 0 1 .168-.146 1.611 1.611 0 0 1 2 .049 2.762 2.762 0 0 0 .351 2.053 1.617 1.617 0 0 1-.25.315zm3.227 2.915a1.665 1.665 0 0 1-.147.169 1.605 1.605 0 1 1-1.956-2.515 2.757 2.757 0 0 0 2.053.35 1.611 1.611 0 0 1 .05 1.996zm.487-3.546a1.588 1.588 0 0 1-.574.369 1.607 1.607 0 0 1-1.578-.262l-.024-.02c-.034-.029-.066-.058-.095-.087s-.059-.062-.085-.092l-.013-.015a1.605 1.605 0 1 1 2.368.108zm11.686 6.241a7.4 7.4 0 0 0-1.5-.781 6.2 6.2 0 0 0-4.327-.1 6.08 6.08 0 0 0-3.776-2.057 7.156 7.156 0 0 0-1.184-.077 2.783 2.783 0 0 0-.077-1.557 10.306 10.306 0 0 1 1.944.511.573.573 0 0 0 .759-.349 5.567 5.567 0 0 1 .7-1.3l6.039 1.615a.574.574 0 1 0 .3-1.108l-5.48-1.462a4.909 4.909 0 0 1 2.753-1.243.573.573 0 0 0 .5-.5 5.053 5.053 0 0 1 .363-1.379 6.057 6.057 0 0 0 3.476 1.724 7.153 7.153 0 0 0 1.655.046 9.776 9.776 0 0 0 2.668 5.006 9.783 9.783 0 0 0-4.813 3.008z" data-name="Path 271" transform="rotate(135 16.395 18.903)"/>
            </g>
        </g>
        <g data-name="Group 507">
            <g data-name="Group 506">
                <path d="M.554 0a.574.574 0 0 0 0 1.147.574.574 0 0 0 0-1.147z" data-name="Path 272" transform="rotate(135 16.395 18.903) translate(15.596 12.518)"/>
            </g>
        </g>
    </g>
</svg>
