<svg xmlns="http://www.w3.org/2000/svg" width="30.556" height="35.663" viewBox="0 0 30.556 35.663">
    <path d="M30.222 13.9c-.12-.047-2.95-1.129-4.849.168a4.27 4.27 0 0 0-1.588 3.785c0 .773-.124 1.751-.716 2.02-.979.444-3.06-.844-4.291-1.864l-1.436-14.7v-.024-.026l-.005-.023c0-.009 0-.017-.007-.026s0-.015-.008-.022l-.021-.03-.01-.021-.011-.023-.012-.021-.014-.022-.013-.019-.017-.022-.014-.017-.02-.021-.009-.01-.007-.006-.022-.02-.017-.014-.023-.017-.011-.012-.027-.013-.019-.011-.044-.02-.018-.006-.029-.01h-.02l-.029-.007h-3.197V.525A.525.525 0 0 0 13.194 0H6.983a.525.525 0 0 0-.525.525v2.307h-3.1a.526.526 0 0 0-.1.01H3.25l-.041.01-.017.006-.029.01-.021.009-.024.011-.017.012-.022.013-.02.014-.022.016-.017.015-.021.019-.009.008-.007.007-.02.022-.014.017-.017.023-.013.019-.018.027-.012.021c0 .008-.007.016-.011.024l-.01.021-.01.027c-.004.009 0 .014-.007.02s-.006.024-.009.036l-.007.041c-.002.014 0 .013 0 .02L.001 32.29a.525.525 0 0 0 .522.576h5.935v2.273a.525.525 0 0 0 .525.525h6.21a.525.525 0 0 0 .525-.525v-2.273h5.933a.525.525 0 0 0 .523-.576l-1.256-12.857a7.317 7.317 0 0 0 3.7 1.567 2.121 2.121 0 0 0 .883-.175c.884-.4 1.332-1.4 1.332-2.976a3.315 3.315 0 0 1 1.128-2.917c1.434-.982 3.836-.075 3.878-.059a.525.525 0 0 0 .382-.978zM10.768 3.882L7.701 6.954 4.625 3.882zm1.485 0h3.323l-5.4 5.554L8.439 7.7zm4.153.652l.324 3.319-4.067 4.067-1.742-1.741zm.456 4.672l.388 3.97-1.666 1.666-2.179-2.179zm.52 5.323l.229 2.34-1.285-1.284zM7.508 1.05h5.16V2.8h-5.16zm-5.73 23.871l2.431-2.431 2.013 2.01-4.9 5.037zm.161-1.646l.272-2.784 1.256 1.256zm-.77 7.881a.522.522 0 0 0 .158-.111l5.637-5.8 2.193 2.193-4.378 4.378H1.101zm12.025.659h-6.93l3.637-3.635 3.635 3.635zm-.525 2.8H7.508v-1.749h5.16zm2.351-2.8L2.343 19.139l.361-3.69 9.507 9.124a.525.525 0 1 0 .727-.758l-10.1-9.7.414-4.275L6.411 13a.525.525 0 0 0 .743-.743l-3.77-3.769.388-3.973 14 14 .472 4.834-9.605-9.606a.525.525 0 0 0-.742.742l10.509 10.509.439 4.491-4.477-4.3a.525.525 0 1 0-.727.757l5.248 5.036a.52.52 0 0 0 .11.081l.073.753H15.02zm0 0" data-name="004-fabric"/>
</svg>
