<svg xmlns="http://www.w3.org/2000/svg" width="30.636" height="34.925" data-name="006-lion" viewBox="0 0 30.636 34.925">
    <path d="M30.054 14.3a1.656 1.656 0 0 1-1.747-1.706c0-2.223-1.448-3.447-4.076-3.447a4.48 4.48 0 0 0-3.4 1.486 3.7 3.7 0 0 0-.665 3.219 5.782 5.782 0 0 0 1.168 2.393c.644.88.881 1.2-.716 2.556-.661-.278-2.411-1.283-3.12-4.289a4.351 4.351 0 0 0 .713.844.876.876 0 0 0 1.4-.967 3.644 3.644 0 0 1-.055-2.229 9.933 9.933 0 0 1 .624-1.568c.917-1.992 2.172-4.72-.747-8.109C16.926-.431 13.267-.162 11.31.257a.873.873 0 0 0-.026 1.7 8.243 8.243 0 0 1 1.4.473 6.653 6.653 0 0 0-3.846.484 18.336 18.336 0 0 0-2.811 1.613.87.87 0 0 0-.229 1.137c.923 1.572 2 2.2 2.97 1.729 1.124-.557 1.363-.4 1.664-.105a.17.17 0 0 1 .037.2c-.036.077-.118.108-.243.1-.019 0-1.808-.165-2.5.648a1.1 1.1 0 0 0-.225 1.02l.025.1c.259 1.064.551 1.815 1.136 2.021a.89.89 0 0 0 .859-.156 9.467 9.467 0 0 1 1.467-.748 11.012 11.012 0 0 1-1.1 1.208.577.577 0 0 0-.21-.042H7.629L3.903 6.842a1.159 1.159 0 0 0-.919-.449H1.165a1.165 1.165 0 0 0-1.1 1.533l.776 2.329a1.164 1.164 0 0 0 1.105.8h.924l1.463 3.9a1.17 1.17 0 0 0 1.091.756h2.789c.031.2.066.4.115.606H1.853a1.177 1.177 0 0 0-1 .575l-.668 1.141a1.158 1.158 0 0 0 .552 1.65l2.675 1.125a1.157 1.157 0 0 0 1.6-1.068L5 19.584a41.483 41.483 0 0 1 5.745 1.516 4.356 4.356 0 0 0-2.634 3.557c-.387 3.49 1.2 4.776 1.758 5.229.056.044.128.1.212.154.275.19.652.451.712.815a1.261 1.261 0 0 1-.2.774L8.911 31.1a1.179 1.179 0 0 0-1.388.564l-.832 1.567a1.13 1.13 0 0 0 .026 1.125 1.161 1.161 0 0 0 1 .569h5.074a1.163 1.163 0 0 0 1.06-.679l1.973-4.356a1.152 1.152 0 0 0-.411-1.415c-.91-.621-.656-1.121-.56-1.31.169-.331.826-.464 1.709-.36.961 1.984 2.023 3.054 3.414 3.513 1.057.346 1.283.558 1.332 1.153h-1.375a1.162 1.162 0 0 0-1.041.638l-.583 1.142a1.137 1.137 0 0 0 .045 1.117 1.162 1.162 0 0 0 1 .555h4.4a1.167 1.167 0 0 0 1.143-.954l.991-5.344a1.155 1.155 0 0 0-.693-1.27 3.469 3.469 0 0 1-2.14-2.317c-.545-2.141-.554-2.552.5-4.106.131-.193.27-.387.409-.581 1.062-1.482 2.517-3.511.1-5.885-.818-.8-1.138-1.612-.835-2.108A1.205 1.205 0 0 1 24.633 12c.382.125.461.406.531 1.307.072.918.182 2.305 1.84 2.712 2.746.672 3.537-.808 3.569-.872a.582.582 0 0 0-.519-.847zm-21.91.244H5.419l-1.464-3.9a1.17 1.17 0 0 0-1.09-.756h-.924l-.776-2.33h1.818l3.727 4.791a1.158 1.158 0 0 0 .919.449h1.023a3.345 3.345 0 0 0-.509 1.747zm5.67 12.093a2.079 2.079 0 0 0 .944 2.782l-1.967 4.342-5.07.019.841-1.572 2.1.664a.579.579 0 0 0 .644-.209 2.659 2.659 0 0 0 .635-2 2.49 2.49 0 0 0-1.2-1.582c-.057-.04-.107-.074-.177-.13-.4-.324-1.614-1.31-1.3-4.166a3.562 3.562 0 0 1 3.193-3.009c1.6.723 2.761 1.552 3.066 2.451.168.495.337.952.507 1.38a2.274 2.274 0 0 0-2.217 1.031zm13.467-11.75c-.8-.2-.881-.709-.957-1.672-.064-.817-.152-1.937-1.331-2.322a2.333 2.333 0 0 0-2.768.86c-.227.374-.826 1.735 1.014 3.544 1.623 1.6.97 2.7-.23 4.376-.145.2-.29.4-.426.606-1.286 1.9-1.274 2.65-.665 5.047a4.625 4.625 0 0 0 2.816 3.093l-.988 5.341-4.4.02.587-1.144h1.969a.582.582 0 0 0 .582-.582c0-1.327-.1-2.174-2.147-2.841-1.51-.5-2.584-2.051-3.707-5.358-.437-1.29-1.914-2.338-3.757-3.172a.559.559 0 0 0-.115-.053 37.183 37.183 0 0 0-7.54-2.193 1.158 1.158 0 0 0-1.367 1.145l.01.15-2.67-1.114.662-1.138h6.476a1.158 1.158 0 0 0 1.126-1.425c-.2-.85-.391-2.367.538-2.973a12.973 12.973 0 0 0 3.037-3.436c.707-1.035 1.2-1.873 1.22-1.908a.582.582 0 0 0-1-.589c0 .008-.435.74-1.053 1.657a14.372 14.372 0 0 0-3.19 1.356 5.17 5.17 0 0 1-.351-1.083l-.05-.089a2.661 2.661 0 0 1 1.5-.247 1.361 1.361 0 0 0 1.415-.759 1.34 1.34 0 0 0-.273-1.527c-.889-.88-1.841-.68-2.995-.109-.325.16-.875-.379-1.309-1.045a20.128 20.128 0 0 1 2.405-1.345c2.064-1.018 4.744.01 4.77.019a.583.583 0 0 0 .795-.542c0-.919-.733-1.678-2.136-2.227a6.528 6.528 0 0 1 5.771 2.037c2.431 2.823 1.486 4.877.572 6.863a10.672 10.672 0 0 0-.695 1.767 5.453 5.453 0 0 0-.175 1.64 10.956 10.956 0 0 1-1.012-3.283.571.571 0 0 0-.594-.508.582.582 0 0 0-.565.54c-.611 8.407 4.309 9.71 4.519 9.762a.59.59 0 0 0 .507-.115c2.535-2.074 2.108-3.07 1.168-4.353a4.732 4.732 0 0 1-.966-1.938 2.587 2.587 0 0 1 .425-2.249 3.343 3.343 0 0 1 2.5-1.058c2.61 0 2.912 1.3 2.912 2.282a2.636 2.636 0 0 0 1.308 2.436 4.372 4.372 0 0 1-1.172-.144zm0 0" data-name="Path 273"/>
    <path d="M11.742 4.125l-1.165.582a.582.582 0 0 0 .521 1.042l1.165-.582a.582.582 0 0 0-.521-1.042zm0 0" data-name="Path 274"/>
</svg>
