<svg xmlns="http://www.w3.org/2000/svg" width="31.268" height="31.269" viewBox="0 0 31.268 31.269">
    <g data-name="002---Decorative-Fabric">
        <path d="M31.267 6.324a2.16 2.16 0 0 0-.677-1.537A1.108 1.108 0 0 1 30.225 4a1.124 1.124 0 0 1 .365-.789 2.084 2.084 0 0 0 .55-2.224 1.48 1.48 0 0 0-.863-.862 2.084 2.084 0 0 0-2.228.55 1.1 1.1 0 0 1-.791.365 1.094 1.094 0 0 1-.787-.365 2.124 2.124 0 0 0-3.066 0 1.062 1.062 0 0 1-.794.356 1.062 1.062 0 0 1-.794-.356 2.123 2.123 0 0 0-3.066 0 1.056 1.056 0 0 1-.791.357 1.056 1.056 0 0 1-.791-.357 2.123 2.123 0 0 0-3.066 0 1.056 1.056 0 0 1-.791.357 1.056 1.056 0 0 1-.791-.357 2.123 2.123 0 0 0-3.066 0 1.064 1.064 0 0 1-.793.354 1.064 1.064 0 0 1-.791-.358 2.121 2.121 0 0 0-3.074 0 1.06 1.06 0 0 1-.791.351A1.06 1.06 0 0 1 3.22.671 2.084 2.084 0 0 0 .993.119a1.487 1.487 0 0 0-.864.868 2.084 2.084 0 0 0 .552 2.225 1.1 1.1 0 0 1 .365.795 1.094 1.094 0 0 1-.365.787 2.075 2.075 0 0 0 0 3.066 1.044 1.044 0 0 1 0 1.586 2.075 2.075 0 0 0 0 3.066 1.113 1.113 0 0 1 .365.791 1.127 1.127 0 0 1-.365.791 2.075 2.075 0 0 0 0 3.066 1.127 1.127 0 0 1 .365.791 1.113 1.113 0 0 1-.365.791 2.075 2.075 0 0 0 0 3.066 1.127 1.127 0 0 1 .365.791 1.114 1.114 0 0 1-.365.792 2.076 2.076 0 0 0 0 3.074 1.108 1.108 0 0 1 .365.787 1.124 1.124 0 0 1-.365.789 2.084 2.084 0 0 0-.6 2.084 1.55 1.55 0 0 0 1.119 1.1 1.727 1.727 0 0 0 .392.044 2.506 2.506 0 0 0 1.582-.649 1.146 1.146 0 0 1 1.625-.04 2.125 2.125 0 0 0 3.066 0 1.061 1.061 0 0 1 1.587 0 2.123 2.123 0 0 0 3.066 0 1.056 1.056 0 0 1 1.582 0 2.123 2.123 0 0 0 3.066 0 1.056 1.056 0 0 1 1.582 0 2.123 2.123 0 0 0 3.066 0 1.062 1.062 0 0 1 1.583 0 2.122 2.122 0 0 0 3.074 0 1.06 1.06 0 0 1 1.577 0 2.084 2.084 0 0 0 2.227.551 1.487 1.487 0 0 0 .864-.864 2.084 2.084 0 0 0-.552-2.225 1.042 1.042 0 0 1 0-1.58 2.075 2.075 0 0 0 0-3.066 1.042 1.042 0 0 1 0-1.587 2.075 2.075 0 0 0 0-3.066 1.113 1.113 0 0 1-.364-.794 1.127 1.127 0 0 1 .365-.791 2.075 2.075 0 0 0 0-3.066 1.127 1.127 0 0 1-.365-.791 1.113 1.113 0 0 1 .365-.791 2.075 2.075 0 0 0 0-3.066 1.127 1.127 0 0 1-.365-.791 1.114 1.114 0 0 1 .365-.793 2.136 2.136 0 0 0 .677-1.536zm-1.407.79a2.084 2.084 0 0 0 0 3.074 1.111 1.111 0 0 1 .365.788 1.127 1.127 0 0 1-.365.791 2.075 2.075 0 0 0 0 3.066 1.038 1.038 0 0 1 0 1.582 2.075 2.075 0 0 0 0 3.066 1.127 1.127 0 0 1 .365.791 1.113 1.113 0 0 1-.365.791 2.084 2.084 0 0 0 0 3.074 1.108 1.108 0 0 1 .362.788 1.123 1.123 0 0 1-.365.788 2.078 2.078 0 0 0 0 3.071 1.032 1.032 0 0 1 .3 1.118.436.436 0 0 1-.251.251 1.035 1.035 0 0 1-1.12-.3 2.124 2.124 0 0 0-3.066 0 1.059 1.059 0 0 1-1.581 0 2.129 2.129 0 0 0-3.072 0 1.056 1.056 0 0 1-1.582 0 2.123 2.123 0 0 0-3.066 0 1.06 1.06 0 0 1-1.582 0 2.123 2.123 0 0 0-3.066 0 1.055 1.055 0 0 1-1.581 0 2.128 2.128 0 0 0-3.074 0 1.061 1.061 0 0 1-1.576 0 2.134 2.134 0 0 0-3.027-.042 1.343 1.343 0 0 1-1.082.4.512.512 0 0 1-.352-.374 1.046 1.046 0 0 1 .327-1.05 2.157 2.157 0 0 0 .677-1.533 2.136 2.136 0 0 0-.677-1.537 1.127 1.127 0 0 1-.365-.791 1.109 1.109 0 0 1 .365-.79 2.08 2.08 0 0 0 0-3.072 1.113 1.113 0 0 1-.365-.791 1.127 1.127 0 0 1 .365-.792 2.072 2.072 0 0 0 0-3.065 1.038 1.038 0 0 1 0-1.582 2.072 2.072 0 0 0 0-3.065 1.127 1.127 0 0 1-.365-.792 1.111 1.111 0 0 1 .365-.79 2.083 2.083 0 0 0 0-3.075 1.108 1.108 0 0 1-.365-.788 1.123 1.123 0 0 1 .365-.788 2.136 2.136 0 0 0 .677-1.531 2.147 2.147 0 0 0-.677-1.539 1.032 1.032 0 0 1-.3-1.118.436.436 0 0 1 .252-.252.962.962 0 0 1 .331-.061 1.107 1.107 0 0 1 .788.365 2.123 2.123 0 0 0 1.529.654A2.123 2.123 0 0 0 5.539 1.4a1.059 1.059 0 0 1 1.581 0 2.131 2.131 0 0 0 1.537.655 2.131 2.131 0 0 0 1.537-.655 1.056 1.056 0 0 1 1.581 0 2.123 2.123 0 0 0 1.533.654 2.123 2.123 0 0 0 1.533-.654 1.06 1.06 0 0 1 1.582 0 2.123 2.123 0 0 0 1.533.654 2.123 2.123 0 0 0 1.533-.654 1.056 1.056 0 0 1 1.582 0 2.128 2.128 0 0 0 1.538.655 2.128 2.128 0 0 0 1.536-.658 1.061 1.061 0 0 1 1.576 0 2.136 2.136 0 0 0 1.529.681 2.148 2.148 0 0 0 1.537-.677 1.029 1.029 0 0 1 1.117-.3.431.431 0 0 1 .248.248 1.029 1.029 0 0 1-.3 1.121 2.157 2.157 0 0 0-.677 1.533 2.136 2.136 0 0 0 .677 1.533 1.127 1.127 0 0 1 .365.791 1.109 1.109 0 0 1-.365.79z"/>
        <path d="M6.256 5.725a.521.521 0 00.521-.521V4.162a.521.521 0 10-1.042 0v1.042a.521.521 0 00.521.521zM7.298 6.767H8.34a.521.521 0 100-1.042H7.298a.521.521 0 000 1.042zM6.256 8.851a.521.521 0 00.521-.521V7.288a.521.521 0 10-1.042 0V8.33a.521.521 0 00.521.521zM4.172 6.767h1.042a.521.521 0 000-1.042H4.172a.521.521 0 100 1.042zM15.635 5.725a.521.521 0 00.521-.521V4.162a.521.521 0 10-1.042 0v1.042a.521.521 0 00.521.521zM16.678 6.767h1.042a.521.521 0 100-1.042h-1.042a.521.521 0 100 1.042zM15.635 8.851a.521.521 0 00.521-.521V7.288a.521.521 0 10-1.042 0V8.33a.521.521 0 00.521.521zM13.551 6.767h1.042a.521.521 0 100-1.042h-1.042a.521.521 0 000 1.042zM25.015 5.725a.521.521 0 00.521-.521V4.162a.521.521 0 00-1.042 0v1.042a.521.521 0 00.521.521zM27.099 5.725h-1.042a.521.521 0 000 1.042h1.042a.521.521 0 100-1.042zM25.536 7.288a.521.521 0 10-1.042 0V8.33a.521.521 0 101.042 0zM22.93 6.767h1.042a.521.521 0 000-1.042H22.93a.521.521 0 000 1.042zM6.777 13.541a.521.521 0 00-1.042 0v1.042a.521.521 0 001.042 0zM7.298 16.146H8.34a.521.521 0 100-1.042H7.298a.521.521 0 100 1.042zM6.777 16.667a.521.521 0 10-1.042 0v1.042a.521.521 0 101.042 0zM4.172 16.146h1.042a.521.521 0 100-1.042H4.172a.521.521 0 100 1.042zM16.156 13.541a.521.521 0 00-1.042 0v1.042a.521.521 0 001.042 0zM16.678 16.146h1.042a.521.521 0 100-1.042h-1.042a.521.521 0 100 1.042zM16.156 16.667a.521.521 0 10-1.042 0v1.042a.521.521 0 101.042 0zM14.593 15.104h-1.042a.521.521 0 100 1.042h1.042a.521.521 0 100-1.042zM25.536 13.541a.521.521 0 00-1.042 0v1.042a.521.521 0 001.042 0zM27.099 15.104h-1.042a.521.521 0 000 1.042h1.042a.521.521 0 100-1.042zM25.536 16.667a.521.521 0 10-1.042 0v1.042a.521.521 0 101.042 0zM23.972 15.104H22.93a.521.521 0 000 1.042h1.042a.521.521 0 000-1.042zM6.256 22.399a.521.521 0 00-.521.521v1.042a.521.521 0 101.042 0V22.92a.521.521 0 00-.521-.521zM8.34 24.484H7.298a.521.521 0 100 1.042H8.34a.521.521 0 100-1.042zM6.256 25.526a.521.521 0 00-.521.521v1.042a.521.521 0 101.042 0v-1.042a.521.521 0 00-.521-.521zM5.214 24.484H4.172a.521.521 0 100 1.042h1.042a.521.521 0 100-1.042zM15.635 24.483a.521.521 0 00.521-.521V22.92a.521.521 0 10-1.042 0v1.042a.521.521 0 00.521.521zM17.72 24.484h-1.042a.521.521 0 100 1.042h1.042a.521.521 0 100-1.042zM15.635 25.526a.521.521 0 00-.521.521v1.042a.521.521 0 101.042 0v-1.042a.521.521 0 00-.521-.521zM14.593 24.484h-1.042a.521.521 0 100 1.042h1.042a.521.521 0 100-1.042zM10.946 17.71a.521.521 0 00-.521.521v1.042a.521.521 0 101.042 0v-1.042a.521.521 0 00-.521-.521zM13.551 20.315a.521.521 0 00-.521-.521h-1.042a.521.521 0 100 1.042h1.042a.521.521 0 00.521-.521zM10.946 20.836a.521.521 0 00-.521.521v1.042a.521.521 0 001.042 0v-1.042a.521.521 0 00-.521-.521zM9.903 19.794H8.861a.521.521 0 100 1.042h1.042a.521.521 0 000-1.042zM20.325 17.71a.521.521 0 00-.521.521v1.042a.521.521 0 101.042 0v-1.042a.521.521 0 00-.521-.521zM22.93 20.315a.521.521 0 00-.521-.521h-1.042a.521.521 0 000 1.042h1.042a.521.521 0 00.521-.521zM20.325 20.836a.521.521 0 00-.521.521v1.042a.521.521 0 001.042 0v-1.042a.521.521 0 00-.521-.521zM19.283 19.794h-1.042a.521.521 0 100 1.042h1.042a.521.521 0 100-1.042zM10.946 10.414a.521.521 0 00.521-.521V8.851a.521.521 0 10-1.042 0v1.042a.521.521 0 00.521.521zM11.988 11.457h1.042a.521.521 0 000-1.042h-1.042a.521.521 0 100 1.042zM11.467 11.978a.521.521 0 10-1.042 0v1.042a.521.521 0 001.042 0zM8.34 10.936a.521.521 0 00.521.521h1.042a.521.521 0 000-1.042H8.861a.521.521 0 00-.521.521zM20.325 10.414a.521.521 0 00.521-.521V8.851a.521.521 0 10-1.042 0v1.042a.521.521 0 00.521.521zM21.367 11.457h1.042a.521.521 0 000-1.042h-1.042a.521.521 0 000 1.042zM20.846 11.978a.521.521 0 00-1.042 0v1.042a.521.521 0 001.042 0zM17.72 10.936a.521.521 0 00.521.521h1.042a.521.521 0 100-1.042h-1.042a.521.521 0 00-.521.521zM25.015 24.483a.521.521 0 00.521-.521V22.92a.521.521 0 10-1.042 0v1.042a.521.521 0 00.521.521zM27.099 24.484h-1.042a.521.521 0 000 1.042h1.042a.521.521 0 100-1.042zM25.015 25.526a.521.521 0 00-.521.521v1.042a.521.521 0 101.042 0v-1.042a.521.521 0 00-.521-.521zM23.972 24.484H22.93a.521.521 0 000 1.042h1.042a.521.521 0 000-1.042z" data-name="Shape"/>
    </g>
</svg>
