<svg xmlns="http://www.w3.org/2000/svg" width="28.048" height="36.575" viewBox="0 0 28.048 36.575">
    <path d="M28.048 15.584a1.219 1.219 0 0 0-.512-1c-.3-.213-1.829-1.683-1.927-9.329a1.219 1.219 0 0 0-.726-1.11c-4.957-2.2-4.963-2.75-5.488-3.012a13.25 13.25 0 0 0-10.738 0c-.482.238-.683.884-5.488 3.012a1.219 1.219 0 0 0-.732 1.11c-.071 7.65-1.614 9.15-1.925 9.329a1.219 1.219 0 0 0-.512 1 75.448 75.448 0 0 0 1.219 16.235 15.9 15.9 0 0 1 .049 2.4 1.219 1.219 0 0 0 .823 1.3 57.925 57.925 0 0 0 11.933 1.055c2.439 0 9.756-.341 11.927-1.055a1.219 1.219 0 0 0 .817-1.3 15.9 15.9 0 0 1 .061-2.4c1.183-5.957 1.219-10.293 1.219-16.231zm-1.219 0v1.689c-1.529-.88-3.768-3.689-3.689-12.569l1.25.567c.079 7.524 1.567 9.695 2.439 10.311zm-12.8-4.079a8.927 8.927 0 0 1-5.212-8.978c.427-.317.311-.268.372-.293a10.908 10.908 0 0 0 4.469 7.39.652.652 0 0 0 .659.043l.073-.043a10.939 10.939 0 0 0 4.476-7.384 3.841 3.841 0 0 0 .366.293 8.914 8.914 0 0 1-5.208 8.975zm3.7-9.725a9.878 9.878 0 0 1-3.7 6.573 9.89 9.89 0 0 1-3.7-6.536 12.2 12.2 0 0 1 7.4-.037zM3.658 5.265l1.256-.567c.079 8.878-2.159 11.689-3.7 12.573v-1.687c.872-.622 2.366-2.793 2.439-10.323zm10.366 30.091a59.811 59.811 0 0 1-11.53-.988c0-.213.037-.689.03-1.219 6.238 1.341 17.427 1.219 23.006 0 0 .506 0 .982.03 1.189a56.483 56.483 0 0 1-11.536 1.018zm11.585-3.445a60.975 60.975 0 0 1-11.585 1.006 60.974 60.974 0 0 1-11.555-1.006A63.865 63.865 0 0 1 1.25 18.624c2.091-.823 5.091-3.86 4.878-14.518.5-.25.982-.5 1.421-.756a10.25 10.25 0 0 0 6.238 9.4.659.659 0 0 0 .482 0 10.256 10.256 0 0 0 6.238-9.4c.439.256.927.512 1.421.762-.209 10.652 2.791 13.689 4.872 14.512a65.115 65.115 0 0 1-1.191 13.287z"/>
</svg>
