<svg xmlns="http://www.w3.org/2000/svg" id="prefix___002-afghanistan" width="28.999" height="19" data-name="002-afghanistan" viewBox="0 0 28.999 19">
    <defs>
        <style>
            .prefix__cls-4{fill:#f5f5f5}
        </style>
    </defs>
    <path id="prefix__Path_322" d="M9.667 107.273H.5a.5.5 0 0 1-.5-.5v-18a.5.5 0 0 1 .5-.5h9.167z" data-name="Path 322" transform="translate(0 -88.273)" style="fill:#464655"/>
    <path id="prefix__Rectangle_1205" d="M0 0H9.667V19H0z" data-name="Rectangle 1205" transform="translate(9.667)" style="fill:#ff4b55"/>
    <path id="prefix__Path_323" d="M350.5 107.273h-9.167v-19h9.167a.5.5 0 0 1 .5.5v18a.5.5 0 0 1-.5.5z" data-name="Path 323" transform="translate(-322 -88.273)" style="fill:#73af00"/>
    <g id="prefix__Group_549" data-name="Group 549" transform="translate(10.73 6.131)">
        <path id="prefix__Path_324" d="M235.572 268.475h-2.61l.145-.29h2.32z" class="prefix__cls-4" data-name="Path 324" transform="translate(-230.497 -264.125)"/>
        <path id="prefix__Path_325" d="M235.572 232.348h-2.61l.145.29h2.32z" class="prefix__cls-4" data-name="Path 325" transform="translate(-230.497 -230.318)"/>
        <path id="prefix__Path_326" d="M244.651 230.079H243.2l.29-.29h.87z" class="prefix__cls-4" data-name="Path 326" transform="translate(-240.156 -227.904)"/>
        <path id="prefix__Rectangle_1206" d="M0 0H0.435V0.29H0z" class="prefix__cls-4" data-name="Rectangle 1206" transform="translate(2.61 3.625)"/>
        <path id="prefix__Rectangle_1207" d="M0 0H0.435V0.29H0z" class="prefix__cls-4" data-name="Rectangle 1207" transform="translate(2.61 3.19)"/>
        <path id="prefix__Rectangle_1208" d="M0 0H0.435V0.29H0z" class="prefix__cls-4" data-name="Rectangle 1208" transform="translate(2.61 2.465)"/>
        <path id="prefix__Rectangle_1209" d="M0 0H0.435V0.145H0z" class="prefix__cls-4" data-name="Rectangle 1209" transform="translate(2.61 2.9)"/>
        <path id="prefix__Rectangle_1210" d="M0 0H0.435V0.29H0z" class="prefix__cls-4" data-name="Rectangle 1210" transform="translate(4.494 3.625)"/>
        <path id="prefix__Rectangle_1211" d="M0 0H0.435V0.29H0z" class="prefix__cls-4" data-name="Rectangle 1211" transform="translate(4.494 3.19)"/>
        <path id="prefix__Rectangle_1212" d="M0 0H0.435V0.29H0z" class="prefix__cls-4" data-name="Rectangle 1212" transform="translate(4.494 2.465)"/>
        <path id="prefix__Rectangle_1213" d="M0 0H0.435V0.145H0z" class="prefix__cls-4" data-name="Rectangle 1213" transform="translate(4.494 2.9)"/>
        <path id="prefix__Rectangle_1214" d="M0 0H0.29V0.58H0z" class="prefix__cls-4" data-name="Rectangle 1214" transform="translate(2.755 1.305)"/>
        <path id="prefix__Path_327" d="M238.371 212.16h-.29v-.145a.145.145 0 0 1 .145-.145.145.145 0 0 1 .145.145v.145z" class="prefix__cls-4" data-name="Path 327" transform="translate(-235.326 -211)"/>
        <path id="prefix__Rectangle_1215" d="M0 0H0.29V0.58H0z" class="prefix__cls-4" data-name="Rectangle 1215" transform="translate(4.494 1.305)"/>
        <path id="prefix__Path_328" d="M269.088 212.16h-.29v-.145a.145.145 0 0 1 .145-.145.145.145 0 0 1 .145.145v.145z" class="prefix__cls-4" data-name="Path 328" transform="translate(-264.304 -211)"/>
        <path id="prefix__Path_329" d="M246.34 240.028a.58.58 0 0 0-.58.58v.87h1.16v-.87a.58.58 0 0 0-.58-.58z" class="prefix__cls-4" data-name="Path 329" transform="translate(-242.57 -237.563)"/>
        <path id="prefix__Path_330" d="M218.818 237.622l-.789-.921a.143.143 0 0 0 .009-.047.145.145 0 1 0-.145.145.142.142 0 0 0 .025 0l.082.1-.4.925.435.435.376-.876.294.343zm-.705.3l-.347-.347.157-.365.347.347z" class="prefix__cls-4" data-name="Path 330" transform="translate(-216.008 -234.244)"/>
        <path id="prefix__Path_331" d="M273.12 237.714l.294-.343.376.876.435-.435-.4-.925.082-.1a.138.138 0 0 0 .025 0 .145.145 0 1 0-.145-.145.141.141 0 0 0 .009.047l-.789.921zm.439-.157l.347-.347.157.365-.347.347z" class="prefix__cls-4" data-name="Path 331" transform="translate(-268.277 -234.242)"/>
        <path id="prefix__Path_332" d="M246.505 212.041a.194.194 0 0 1-.112-.078.061.061 0 1 0-.1 0 .194.194 0 0 1-.112.078.569.569 0 0 0-.4.7h1.119a.569.569 0 0 0-.4-.7z" class="prefix__cls-4" data-name="Path 332" transform="translate(-242.571 -211.001)"/>
        <path id="prefix__Path_333" d="M192.307 230.775c-.007-.09-.012-.181-.012-.273a3.341 3.341 0 0 1 .047-.549c.042.029.086.061.131.1a3.2 3.2 0 0 0-.033.453c0 .107.005.213.016.318l.306.092a2.893 2.893 0 0 1-.032-.41c0-.069 0-.138.01-.206a.966.966 0 0 1 .286.629c0 .006.465-.689-.381-1.456l-.006.326-.487-.005a.09.09 0 0 0-.09.074 3.642 3.642 0 0 0-.057.638v.184z" class="prefix__cls-4" data-name="Path 333" transform="translate(-191.86 -227.602)"/>
        <path id="prefix__Path_334" d="M195.423 196.772a.145.145 0 1 0-.177-.229 3.6 3.6 0 0 0-1.3 1.983h.3a3.317 3.317 0 0 1 1.177-1.754z" class="prefix__cls-4" data-name="Path 334" transform="translate(-193.689 -196.512)"/>
        <path id="prefix__Path_335" d="M204.691 206.792a3.181 3.181 0 0 0-.716 1.067 1.626 1.626 0 0 1 .224.222 2.887 2.887 0 0 1 .7-1.082.145.145 0 0 0-.2-.207z" class="prefix__cls-4" data-name="Path 335" transform="translate(-203.152 -206.17)"/>
        <path id="prefix__Path_336" d="M190.483 254.44a3.341 3.341 0 0 1-.481-1.026l.169.062a3.2 3.2 0 0 0 .47.935l.32-.059a2.923 2.923 0 0 1-.438-.748l.189.069a2.766 2.766 0 0 0 .411.648l.333-.061a2.468 2.468 0 0 1-.344-.447l-.193-.386a.483.483 0 0 0-.293-.247l-.456-.137-.106-.032-.152-.046-.3-.091-.161-.048.1.3a.3.3 0 0 0 .124.157 3.608 3.608 0 0 0 .5 1.212z" class="prefix__cls-4" data-name="Path 336" transform="translate(-189.448 -249.639)"/>
        <path id="prefix__Path_337" d="M300.229 229.8l-.006-.326c-.846.767-.381 1.462-.381 1.456a.966.966 0 0 1 .286-.629c.005.068.01.137.01.206a2.892 2.892 0 0 1-.032.41l.306-.092c.01-.1.016-.21.016-.318a3.188 3.188 0 0 0-.033-.453l.131-.1a3.334 3.334 0 0 1 .047.549c0 .092 0 .183-.012.273l.3-.089v-.184a3.647 3.647 0 0 0-.057-.638.09.09 0 0 0-.09-.074z" class="prefix__cls-4" data-name="Path 337" transform="translate(-293.469 -227.602)"/>
        <path id="prefix__Path_338" d="M292.188 198.53h.3a3.6 3.6 0 0 0-1.3-1.983.145.145 0 1 0-.177.229 3.316 3.316 0 0 1 1.177 1.754z" class="prefix__cls-4" data-name="Path 338" transform="translate(-285.203 -196.513)"/>
        <path id="prefix__Path_339" d="M291.99 207.859a3.182 3.182 0 0 0-.716-1.067.145.145 0 0 0-.2.207 2.887 2.887 0 0 1 .7 1.082 1.617 1.617 0 0 1 .216-.222z" class="prefix__cls-4" data-name="Path 339" transform="translate(-285.273 -206.17)"/>
        <path id="prefix__Path_340" d="M288.953 252.872l-.3.091-.152.046-.105.032-.456.137a.483.483 0 0 0-.293.247l-.193.386a2.466 2.466 0 0 1-.344.447l.333.061a2.763 2.763 0 0 0 .411-.648l.189-.07a2.925 2.925 0 0 1-.438.748l.32.059a3.2 3.2 0 0 0 .47-.935l.169-.062a3.339 3.339 0 0 1-.481 1.026l.313.057a3.61 3.61 0 0 0 .5-1.212.3.3 0 0 0 .124-.157l.1-.3z" class="prefix__cls-4" data-name="Path 340" transform="translate(-281.576 -249.634)"/>
        <path id="prefix__Path_341" d="M204.388 280.723l-.007.007a2.446 2.446 0 0 1-3.007 0l-.007-.007a.231.231 0 0 0-.217-.071l-1.462.3.324.284a.43.43 0 0 0 .309.105 3.655 3.655 0 0 0 .891.653l-.095.175a3.693 3.693 0 0 0 3.521 0l-.095-.175a3.656 3.656 0 0 0 .891-.653.43.43 0 0 0 .309-.105l.324-.284-1.462-.3a.231.231 0 0 0-.217.071zm-3.038 1.019a3.364 3.364 0 0 1-.72-.508l.141-.067a3.213 3.213 0 0 0 .648.448zm3.774-.508a3.369 3.369 0 0 1-.72.508l-.069-.127a3.213 3.213 0 0 0 .648-.448zm-2.247.447a2.879 2.879 0 0 1-1.821-.65l.145-.069a2.737 2.737 0 0 0 3.353 0l.145.069a2.877 2.877 0 0 1-1.823.65z" class="prefix__cls-4" data-name="Path 341" transform="translate(-199.107 -275.882)"/>
        <path id="prefix__Path_342" d="M227.911 276.006c.062.053.127.1.194.149h2.795q.1-.07.194-.149l-.141-.141h-2.9z" class="prefix__cls-4" data-name="Path 342" transform="translate(-225.732 -271.371)"/>
    </g>
</svg>
