<svg xmlns="http://www.w3.org/2000/svg" id="prefix___003-pakistan" width="28.499" height="19" data-name="003-pakistan" viewBox="0 0 28.499 19">
    <defs>
        <style>
            .prefix__cls-1{fill:#f0f0f0}
        </style>
    </defs>
    <g id="prefix__Group_543" data-name="Group 543" transform="translate(0 .001)">
        <path id="prefix__Path_311" d="M374.346 170.516l.975 1.051 1.3-.6-.7 1.252.975 1.051-1.406-.277-.7 1.252-.171-1.423-1.406-.277 1.3-.6z" class="prefix__cls-1" data-name="Path 311" transform="translate(-352.443 -165.775)"/>
        <path id="prefix__Rectangle_1174" d="M0 0H28.499V18.999H0z" class="prefix__cls-1" data-name="Rectangle 1174"/>
    </g>
    <path id="prefix__Rectangle_1175" d="M0 0H21.374V19H0z" data-name="Rectangle 1175" transform="translate(7.125)" style="fill:#496e2d"/>
    <g id="prefix__Group_544" data-name="Group 544" transform="translate(11.931 4.874)">
        <path id="prefix__Path_312" d="M222.563 179.9a3.859 3.859 0 1 1-2.761-6.956 4.75 4.75 0 1 0 3.977 5.5 3.843 3.843 0 0 1-1.216 1.456z" class="prefix__cls-1" data-name="Path 312" transform="translate(-214.35 -172.888)"/>
        <path id="prefix__Path_313" d="M341.452 172.889l.973 1.049 1.3-.6-.7 1.249.973 1.049-1.4-.277-.7 1.25-.171-1.421-1.4-.277 1.3-.6z" class="prefix__cls-1" data-name="Path 313" transform="translate(-333.313 -172.889)"/>
    </g>
</svg>
